<?xml version="1.0" encoding="UTF-8"?>
<svg id="Capa_1" data-name="Capa 1" xmlns="http://www.w3.org/2000/svg" viewBox="0 0 312.29 340.29">
  <defs>
    <style>
      .cls-1 {
        fill: #d31216;
      }
    </style>
  </defs>
  <path d="M80.94,179.58c-9.39-14.41-16.21-31.64-16.21-50.15,0-50.67,40.93-91.75,91.42-91.75s91.42,41.08,91.42,91.75c0,19.63-5.25,37.37-15.71,52.29l22.46,31.71c21.21-23.07,30.8-50.14,30.8-84C285.11,57.95,227.37,0,156.14,0S27.18,57.95,27.18,129.43c0,33.4,10.82,61.83,31.52,84.79l22.24-34.64Z"/>
  <path d="M186.98,216.24c-9.68,3.5-19.96,3.39-30.84,3.39s-31.57-4.06-31.57-4.06l-18.11,33.35c15.29,6.41,32.07,9.95,49.68,9.95s31.64-2.6,46.67-8.76l-15.84-33.87Z"/>
  <polygon class="cls-1" points="0 340.29 92.91 340.29 113.77 301.16 67.24 301.77 155.42 143.4 245.12 301.47 197.21 301.47 218.61 340.29 312.29 340.29 155.52 64.53 0 340.29"/>
</svg>